<svg width="32" height="33" viewBox="0 0 32 33" fill="none" xmlns="http://www.w3.org/2000/svg">
<path d="M16 0.246155C7.17168 0.246155 0 7.52817 0 16.4923C0 25.4564 7.17168 32.7385 16 32.7385C24.8283 32.7385 32 25.4564 32 16.4923C32 7.52817 24.8283 0.246155 16 0.246155ZM16 1.65886C24.0764 1.65886 30.6087 8.29166 30.6087 16.4923C30.6087 24.693 24.0764 31.3258 16 31.3258C7.9236 31.3258 1.3913 24.693 1.3913 16.4923C1.3913 8.29166 7.9236 1.65886 16 1.65886ZM15.3043 8.01606V15.786H7.65217V17.1987H15.3043V24.9686H16.6957V17.1987H24.3478V15.786H16.6957V8.01606H15.3043Z" fill="white"/>
</svg>
